<?xml version="1.0" encoding="utf-8"?>
<!-- Generator: Adobe Illustrator 16.0.2, SVG Export Plug-In . SVG Version: 6.00 Build 0)  -->
<!DOCTYPE svg PUBLIC "-//W3C//DTD SVG 1.1//EN" "http://www.w3.org/Graphics/SVG/1.1/DTD/svg11.dtd">
<svg version="1.1" id="Слой_1" xmlns="http://www.w3.org/2000/svg" xmlns:xlink="http://www.w3.org/1999/xlink" x="0px" y="0px"
	 width="15.443px" height="27.266px" viewBox="0 0 15.443 27.266" enable-background="new 0 0 15.443 27.266" xml:space="preserve">
<g>
	<g>
		<path fill-rule="evenodd" clip-rule="evenodd" d="M7.72,13.958c1.785,0,3.581-0.675,4.942-2.037c2.724-2.733,2.724-7.149,0-9.873
			C11.3,0.687,9.504,0,7.72,0S4.15,0.687,2.789,2.048c-2.723,2.724-2.723,7.14,0,9.873C4.15,13.283,5.935,13.958,7.72,13.958z
			 M7.814,4.276c1.496,0,2.709,1.213,2.709,2.709S9.31,9.694,7.814,9.694c-1.496,0-2.708-1.213-2.708-2.709S6.318,4.276,7.814,4.276
			z M10.489,19.792c1.498-0.331,2.905-0.938,4.107-1.818c0.926-0.676,1.121-1.957,0.445-2.883c-0.664-0.916-1.956-1.121-2.871-0.446
			c-2.414,1.762-6.476,1.762-8.89,0c-0.916-0.675-2.208-0.47-2.883,0.446c-0.675,0.926-0.469,2.207,0.446,2.883
			c1.189,0.869,2.574,1.464,4.049,1.796l-3.97,3.97c-0.812,0.813-0.812,2.116,0,2.918c0.801,0.812,2.105,0.812,2.917,0l3.844-3.845
			l3.844,3.845c0.4,0.411,0.926,0.605,1.453,0.605c0.537,0,1.063-0.194,1.464-0.605c0.801-0.802,0.801-2.105,0-2.918L10.489,19.792z
			"/>
	</g>
</g>
</svg>
