<?xml version="1.0" encoding="utf-8"?>
<!-- Generator: Adobe Illustrator 16.0.2, SVG Export Plug-In . SVG Version: 6.00 Build 0)  -->
<!DOCTYPE svg PUBLIC "-//W3C//DTD SVG 1.1//EN" "http://www.w3.org/Graphics/SVG/1.1/DTD/svg11.dtd">
<svg version="1.1" id="Слой_1" xmlns="http://www.w3.org/2000/svg" xmlns:xlink="http://www.w3.org/1999/xlink" x="0px" y="0px"
	 width="21.928px" height="21.927px" viewBox="0 0 21.928 21.927" enable-background="new 0 0 21.928 21.927" xml:space="preserve">
<g>
	<path fill-rule="evenodd" clip-rule="evenodd" d="M12.731,12.126c-0.354-0.229-0.801-0.342-1.316-0.342H8.646v3.042h2.769
		c0.538,0,0.984-0.115,1.339-0.332c0.344-0.229,0.515-0.607,0.515-1.156C13.269,12.756,13.086,12.356,12.731,12.126z"/>
	<path fill-rule="evenodd" clip-rule="evenodd" d="M11.335,9.495c0.172-0.045,0.32-0.113,0.457-0.217
		c0.139-0.104,0.252-0.229,0.344-0.389s0.138-0.355,0.138-0.596c0-0.48-0.149-0.813-0.435-1.006
		c-0.287-0.184-0.618-0.275-0.973-0.275h-2.22v2.539h2.22C11.015,9.551,11.175,9.53,11.335,9.495z"/>
	<path fill-rule="evenodd" clip-rule="evenodd" d="M18.928,0H3C1.344,0,0,1.343,0,3v15.925c0,1.658,1.344,3.002,3,3.002h15.928
		c1.656,0,3-1.344,3-3.002V3C21.928,1.343,20.584,0,18.928,0z M16.313,15.443c-0.275,0.527-0.642,0.949-1.11,1.258
		c-0.458,0.322-1.007,0.551-1.636,0.688c-0.63,0.127-1.305,0.193-2.002,0.193H5.203V4.346h5.731c0.572-0.01,1.145,0.023,1.716,0.104
		c0.561,0.092,1.076,0.264,1.533,0.504c0.458,0.252,0.836,0.584,1.109,1.018c0.287,0.436,0.436,0.996,0.436,1.693
		c0,0.596-0.16,1.121-0.48,1.578c-0.332,0.469-0.629,0.836-1.156,1.088c0.711,0.217,1.603,0.605,2.014,1.166
		c0.412,0.561,0.618,1.212,0.618,1.968C16.724,14.266,16.587,14.918,16.313,15.443z"/>
</g>
</svg>
